<?xml version="1.0" standalone="no"?>
<!DOCTYPE svg PUBLIC "-//W3C//DTD SVG 20010904//EN"
 "http://www.w3.org/TR/2001/REC-SVG-20010904/DTD/svg10.dtd">
<svg version="1.0" xmlns="http://www.w3.org/2000/svg"
 width="3000.000000pt" height="2000.000000pt" viewBox="0 0 3000.000000 2000.000000"
 preserveAspectRatio="xMidYMid meet">
<metadata>
Created by potrace 1.16, written by Peter Selinger 2001-2019
</metadata>
<g transform="translate(0.000000,2000.000000) scale(0.100000,-0.100000)"
fill="#000000" stroke="none">
<path d="M22396 18057 c-13 -63 -6 -156 16 -214 30 -81 121 -171 203 -202 129
-49 300 -10 385 87 51 57 87 133 95 197 6 50 6 50 -9 20 l-15 -30 4 45 c4 40
4 42 -4 12 -10 -39 -21 -53 -21 -27 0 10 -3 16 -6 12 -4 -3 -23 0 -42 9 -23 9
-38 11 -42 5 -7 -12 -80 7 -80 21 0 4 -20 8 -45 8 -26 0 -59 7 -76 15 -16 9
-65 18 -109 22 -45 3 -83 10 -86 15 -3 4 -28 8 -55 8 -36 0 -51 4 -56 16 -5
13 -7 13 -14 2 -5 -7 -9 -8 -9 -2 0 24 -29 9 -34 -19z"/>
<path d="M29902 17259 c-122 -108 -270 -272 -395 -438 -92 -122 -227 -315
-227 -326 0 -2 -22 -38 -50 -79 -27 -42 -50 -78 -50 -80 0 -2 -22 -40 -49 -83
-27 -43 -71 -121 -98 -173 -48 -90 -179 -312 -254 -429 l-35 -54 -315 2 c-178
1 -349 -3 -394 -9 -44 -6 -99 -13 -122 -15 -23 -2 -50 -8 -60 -14 -10 -5 -31
-7 -47 -4 -18 4 -27 2 -23 -4 4 -7 -19 -11 -64 -12 -39 -1 -80 -6 -90 -12 -11
-5 -25 -7 -31 -3 -7 4 -8 3 -4 -4 5 -8 -4 -12 -27 -12 -23 0 -37 -6 -41 -16
-5 -13 -16 -15 -59 -10 -39 4 -44 3 -19 -3 46 -12 47 -17 4 -17 -62 -1 -100
-8 -94 -18 3 -5 -2 -7 -11 -3 -9 3 -18 0 -21 -9 -6 -16 29 -20 39 -4 9 15 25
12 25 -5 0 -8 -6 -15 -12 -16 -7 0 -3 -5 10 -11 44 -22 16 -54 -38 -43 -14 3
-53 3 -87 -1 l-63 -6 0 -74 0 -74 -40 0 -40 0 0 79 c0 77 1 79 23 74 16 -3 18
-2 8 5 -11 8 -10 11 5 15 17 4 17 5 1 6 -10 0 -29 -6 -42 -15 -23 -15 -25 -23
-25 -90 0 -43 -4 -74 -10 -74 -5 0 -10 -18 -10 -40 0 -29 -4 -40 -15 -40 -8 0
-15 -4 -15 -9 0 -5 -36 -12 -80 -16 -76 -7 -80 -8 -80 -31 0 -26 0 -26 -75
-28 l-50 -1 -3 -37 c-2 -25 -8 -38 -18 -38 -8 0 -14 7 -14 15 0 12 -15 15 -75
15 l-75 0 0 -35 c0 -29 -5 -38 -27 -48 -16 -6 -34 -17 -41 -24 -7 -7 -33 -13
-57 -13 l-44 0 5 -37 c3 -23 1 -31 -3 -21 -7 15 -10 14 -20 -10 -15 -34 -68
-43 -60 -11 4 16 1 19 -16 15 -13 -4 -9 0 7 8 l30 14 -35 17 c-19 9 -29 12
-22 5 9 -10 7 -17 -7 -32 -18 -19 -47 -17 -35 3 10 15 -2 10 -16 -8 -10 -11
-10 -14 -1 -9 19 12 14 -9 -8 -29 -12 -11 -20 -13 -20 -6 0 7 -4 9 -10 6 -14
-8 -13 -45 1 -45 6 0 19 10 30 23 10 12 18 17 19 11 0 -6 -9 -19 -20 -29 -17
-15 -24 -16 -45 -7 -22 10 -28 8 -54 -20 -17 -18 -27 -38 -23 -46 4 -12 1 -14
-12 -9 -13 5 -19 1 -23 -12 -3 -11 -10 -18 -17 -15 -18 7 -218 -225 -374 -434
-187 -250 -418 -612 -720 -1127 -74 -126 -152 -256 -174 -287 -21 -31 -38 -59
-38 -62 0 -4 -67 -107 -159 -246 -33 -51 -159 -228 -241 -341 -269 -369 -695
-850 -1044 -1176 -65 -61 -68 -63 -121 -63 -31 0 -55 4 -55 10 0 6 14 37 30
70 17 33 31 63 31 67 1 5 9 19 19 33 9 14 24 39 32 55 8 17 38 72 66 124 29
51 49 99 45 105 -3 6 -2 8 2 3 8 -7 22 14 93 143 19 36 46 83 59 105 13 22 30
54 38 70 8 17 25 46 37 67 69 111 78 129 72 140 -4 6 -3 8 3 5 6 -4 19 10 28
31 10 20 26 48 35 62 9 14 15 32 12 40 -3 8 -1 12 3 8 5 -5 32 34 60 85 28 50
61 108 72 127 61 107 93 173 87 182 -5 7 -2 8 6 3 10 -6 12 -4 7 9 -4 10 -3
15 3 11 5 -3 14 4 20 15 6 11 7 20 3 20 -4 0 -3 4 3 8 7 4 20 24 30 45 11 21
61 121 112 222 52 101 91 189 87 195 -4 6 -1 9 5 8 15 -4 143 299 133 315 -3
7 -2 8 3 4 8 -8 72 144 73 176 1 9 6 17 11 17 6 0 10 6 10 14 0 7 9 34 21 60
11 25 17 51 13 58 -5 7 -3 8 6 3 10 -6 12 -4 7 8 -3 10 -3 17 1 17 13 0 33 66
26 86 -5 16 -4 17 6 4 9 -12 11 -10 7 12 -2 15 0 26 6 25 12 -3 39 72 30 86
-4 6 -1 7 7 2 9 -6 10 -2 5 15 -5 14 -3 20 3 16 6 -3 13 7 17 23 3 17 16 49
27 73 11 23 21 53 21 65 0 13 4 23 9 23 5 0 6 5 3 10 -4 6 -11 7 -17 4 -7 -4
-8 -2 -4 4 4 6 13 9 21 5 14 -5 19 8 18 44 -1 7 4 10 10 6 6 -4 8 0 4 10 -3 8
0 21 8 27 13 11 31 66 27 83 -1 4 3 7 9 7 5 0 7 5 4 11 -4 5 -1 18 7 27 27 35
39 64 34 85 -3 12 -3 16 0 9 5 -12 40 48 48 83 2 6 17 40 36 77 28 59 31 70
19 85 -13 16 -12 17 3 5 19 -15 31 -2 21 24 -4 11 -3 15 4 11 13 -8 26 20 16
35 -3 7 -1 8 5 4 15 -9 34 37 26 61 -4 12 -3 14 3 6 6 -9 12 -7 22 8 7 12 9
19 4 16 -4 -3 -9 6 -9 19 -2 24 -1 24 13 7 14 -17 14 -17 9 0 -3 9 -1 17 3 17
5 0 19 19 31 43 37 71 90 159 101 167 3 3 15 22 26 42 22 40 94 150 104 158 4
3 36 43 73 90 36 47 78 97 92 112 14 15 23 32 19 37 -3 6 1 18 9 27 9 8 16 12
16 7 0 -5 -5 -14 -12 -21 -7 -7 -8 -12 -2 -12 20 0 136 129 128 142 -6 9 -3 9
9 -1 20 -16 23 -1 5 18 -11 11 -9 11 9 2 19 -10 25 -8 39 14 9 14 19 23 23 20
4 -2 23 9 42 25 19 16 29 29 22 30 -6 0 -15 -4 -18 -10 -3 -5 -15 -15 -27 -21
-35 -19 -11 9 34 39 22 15 52 35 67 44 30 21 45 23 35 6 -5 -7 -3 -8 5 -4 7 5
10 11 7 14 -10 10 16 32 38 32 11 0 39 9 61 20 37 19 34 20 -12 4 -15 -5 -14
-3 2 11 11 9 19 21 17 27 -2 6 6 8 19 5 12 -3 28 0 35 8 17 17 18 72 2 78 -7
3 6 6 30 6 l42 1 0 75 0 75 -163 0 -163 0 4 240 4 240 -161 0 -161 0 0 40 0
40 -122 0 c-131 0 -198 7 -198 21 0 14 53 24 58 11 8 -24 24 -12 18 13 -5 18
-2 25 9 25 8 0 15 4 15 9 0 6 29 7 71 4 l71 -6 -6 24 c-6 19 -5 21 4 9 9 -11
13 -12 17 -2 6 14 63 17 63 2 0 -5 -9 -10 -20 -10 -11 0 -20 -4 -20 -10 0 -5
16 -10 35 -10 34 0 35 1 35 39 0 34 -3 40 -27 46 -27 6 -27 7 -9 21 11 7 34
17 53 20 18 3 33 10 33 15 0 5 13 9 29 9 16 0 35 7 42 16 12 15 11 16 -6 11
-11 -3 -33 -9 -50 -13 -16 -4 -33 -12 -37 -18 -4 -6 -17 -11 -30 -12 -27 -2
-137 -52 -156 -71 -7 -7 -20 -13 -29 -13 -16 0 -179 -85 -204 -106 -8 -8 -21
-14 -27 -14 -6 0 -17 -6 -24 -12 -22 -21 -86 -68 -93 -68 -6 0 -79 -54 -149
-110 -46 -36 -134 -116 -165 -149 -162 -174 -204 -221 -226 -254 -5 -8 -30
-44 -55 -79 -66 -93 -142 -213 -184 -293 -20 -38 -41 -77 -46 -85 -4 -8 -16
-33 -26 -55 -9 -22 -31 -71 -49 -110 -69 -149 -116 -273 -170 -450 -20 -66
-43 -138 -50 -160 -15 -41 -70 -259 -85 -330 -4 -22 -20 -98 -34 -170 -14 -71
-30 -152 -36 -180 -15 -74 -54 -304 -90 -530 -18 -110 -45 -281 -61 -380 -17
-99 -34 -205 -39 -235 -39 -243 -117 -548 -185 -730 -110 -294 -197 -576 -284
-930 -28 -113 -64 -248 -81 -300 -16 -52 -32 -107 -36 -122 -3 -16 -10 -28
-15 -28 -5 0 -9 -9 -9 -20 0 -18 -5 -20 -32 -16 -18 3 -82 13 -143 22 -60 9
-148 25 -195 36 -47 11 -95 20 -107 20 -13 0 -20 4 -17 9 3 5 -1 6 -9 3 -7 -2
-90 14 -183 37 -93 22 -181 43 -196 44 -15 2 -58 13 -95 24 -249 74 -427 101
-703 108 -380 9 -664 -40 -1045 -182 -122 -45 -404 -180 -551 -265 -201 -115
-512 -329 -699 -480 -71 -57 -123 -91 -111 -71 7 10 -64 35 -96 33 -10 0 -18
3 -18 7 0 5 -21 12 -47 17 -27 4 -50 8 -53 8 -3 1 -10 4 -15 8 -6 3 -48 12
-95 19 -92 13 -325 7 -395 -11 -73 -19 -80 -21 -125 -30 -25 -5 -88 -21 -140
-35 -52 -14 -104 -28 -115 -30 -161 -37 -188 -40 -340 -40 -131 0 -179 5 -265
24 -348 77 -648 246 -946 531 -200 192 -361 383 -591 705 -23 33 -57 80 -75
105 -18 25 -32 48 -31 51 1 3 -11 20 -27 37 -16 18 -26 32 -23 32 3 0 -1 8 -9
18 -9 9 -81 114 -161 232 -174 260 -382 543 -477 651 -115 131 -155 174 -226
239 l-81 75 -1139 5 -1139 5 -58 24 c-201 80 -317 298 -273 509 29 138 115
247 246 311 l75 36 240 4 c214 3 235 5 195 16 -400 112 -735 180 -1125 227
-247 29 -785 32 -1005 5 -563 -70 -1014 -193 -1460 -397 -707 -324 -1302 -844
-1838 -1607 l-93 -131 -115 39 c-108 37 -143 42 -128 17 4 -7 2 -8 -4 -4 -6 4
-9 12 -6 20 6 15 -189 81 -209 70 -6 -4 -9 -3 -4 1 4 5 -37 21 -90 37 -185 54
-624 160 -639 154 -8 -3 -13 -2 -10 3 7 11 -67 23 -88 15 -9 -3 -16 -1 -16 5
0 6 -7 11 -16 11 -9 0 -12 -5 -8 -12 5 -8 2 -9 -10 -5 -10 4 -25 7 -34 8 -10
1 -6 4 8 8 20 6 9 10 -50 20 -41 7 -104 15 -140 18 -36 3 -69 9 -75 14 -12 12
-25 11 -25 -1 0 -6 11 -15 25 -20 26 -10 34 -36 13 -43 -7 -2 -1 -2 13 0 42 6
79 -7 79 -28 0 -13 -8 -20 -22 -21 -13 0 -27 -2 -33 -3 -5 -2 -15 -3 -22 -4
-7 0 -10 -8 -7 -16 7 -17 64 -21 64 -5 0 6 5 10 10 10 7 0 10 -450 10 -1329
l0 -1330 22 -4 c13 -2 -1 -3 -30 -1 -29 2 -50 -1 -47 -5 4 -7 -130 -26 -176
-25 -11 0 -15 -6 -11 -18 2 -10 9 -18 16 -18 6 -1 43 -21 81 -45 39 -24 90
-56 115 -71 25 -15 66 -45 91 -66 25 -21 49 -38 53 -38 7 0 9 -2 76 -60 25
-22 48 -40 52 -40 4 0 5 -7 2 -15 -4 -10 -2 -14 7 -10 8 2 34 -14 59 -36 26
-24 40 -43 33 -46 -16 -6 4 -51 26 -56 9 -3 1 -5 -16 -6 -32 -1 -33 0 -29 40
4 36 1 42 -27 59 -35 22 -47 19 -23 -5 9 -9 16 -31 16 -48 0 -24 -3 -28 -10
-17 -8 12 -10 10 -10 -8 0 -16 4 -21 13 -16 9 6 9 4 -1 -7 -15 -16 -18 -319
-2 -319 6 0 10 -33 10 -80 l0 -80 30 0 30 0 0 -120 0 -120 25 0 c23 0 25 -4
25 -40 0 -22 -4 -40 -9 -40 -12 0 -71 -59 -71 -71 0 -5 -18 -9 -40 -9 l-40 0
0 40 0 40 -40 0 -40 0 0 -80 0 -80 40 0 40 0 0 -80 0 -80 -40 0 -40 0 0 -40 0
-40 40 0 40 0 0 -120 0 -120 -40 0 -40 0 0 -65 0 -65 -40 0 c-29 0 -40 -4 -40
-15 0 -12 16 -15 80 -15 l80 0 0 -40 0 -40 -40 0 -40 0 0 -80 0 -80 40 0 c29
0 40 -4 40 -15 0 -12 -16 -15 -80 -15 l-80 0 0 -145 0 -145 -40 0 -40 0 0 -80
0 -80 -40 0 -40 0 0 -80 0 -80 -40 0 -40 0 0 -80 0 -80 40 0 c29 0 40 -4 40
-15 0 -11 -11 -15 -40 -15 -29 0 -40 4 -40 15 0 11 -11 15 -40 15 l-40 0 0
-40 0 -40 -40 0 -40 0 0 -80 0 -80 -40 0 c-29 0 -40 4 -40 15 0 11 -12 15 -44
15 -26 0 -48 -6 -56 -15 -10 -12 -10 -15 4 -15 12 0 16 -10 16 -40 0 -22 5
-40 10 -40 6 0 10 -18 10 -40 0 -22 -4 -40 -10 -40 -5 0 -10 -18 -10 -40 l0
-40 -40 0 c-39 0 -40 -1 -40 -34 0 -19 -2 -41 -6 -49 -3 -8 7 -28 21 -45 18
-22 24 -38 20 -52 -5 -16 -10 -18 -20 -10 -9 8 -14 6 -19 -6 -3 -9 -4 -20 0
-25 3 -5 -9 -12 -25 -15 -21 -5 -28 -10 -22 -18 4 -6 7 -22 6 -36 -1 -14 2
-28 7 -31 4 -3 -3 -16 -17 -29 l-26 -24 3 37 c1 27 -3 41 -17 51 -25 18 -11
34 15 18 12 -7 20 -8 20 -2 0 5 -4 10 -10 10 -5 0 -10 7 -10 15 0 20 -26 19
-48 -3 -21 -21 -22 -40 -2 -52 12 -7 12 -12 2 -22 -10 -10 -14 -10 -21 0 -7
11 -10 10 -15 -3 -11 -31 -7 -55 12 -55 26 0 45 -36 32 -61 -6 -11 -15 -17
-21 -13 -6 4 -6 11 2 20 6 8 9 18 5 21 -4 4 -12 1 -17 -7 -8 -12 -9 -12 -7 4
2 10 -3 21 -9 23 -7 3 -13 -1 -13 -8 0 -19 -67 -79 -90 -79 -25 0 -25 -1 0
-50 24 -47 25 -60 6 -86 -12 -15 -17 -17 -28 -6 -11 11 -10 14 1 21 11 7 11
16 1 47 -17 54 -27 61 -35 25 -6 -30 -8 -31 -66 -31 l-59 0 0 -40 c0 -29 -4
-40 -15 -40 -11 0 -15 -11 -15 -40 l0 -40 -40 0 -40 0 0 -55 0 -55 -40 0 c-38
0 -40 2 -40 30 0 28 -2 30 -40 30 l-40 0 0 -95 0 -95 -40 0 c-40 0 -40 0 -40
-39 0 -41 -8 -49 -52 -46 -26 2 -28 -1 -28 -37 0 -38 0 -38 -40 -38 -29 0 -40
4 -40 15 0 8 -9 15 -20 15 -17 0 -20 -7 -20 -48 0 -36 5 -51 20 -62 13 -9 20
-26 20 -47 0 -32 -1 -33 -40 -33 -29 0 -40 -4 -40 -15 0 -11 -11 -15 -40 -15
-22 0 -40 -4 -40 -10 0 -6 -33 -10 -80 -10 -64 0 -80 -3 -80 -15 0 -11 11 -15
40 -15 l40 0 0 -40 0 -40 -40 0 c-40 0 -40 0 -40 -40 l0 -39 -77 -3 -78 -3 -2
-407 c-2 -274 1 -408 8 -408 6 0 7 4 4 10 -3 6 1 10 9 10 9 0 16 -9 16 -21 0
-18 5 -20 50 -16 45 4 52 2 71 -22 13 -17 22 -22 25 -14 3 7 14 23 25 35 17
20 19 20 10 3 -16 -33 -61 -90 -61 -77 0 17 -35 15 -51 -4 -10 -12 -10 -20 -1
-35 16 -25 15 -30 -4 -22 -10 4 -15 1 -14 -8 5 -33 1 -40 -14 -27 -7 7 -12 23
-10 34 3 16 -1 21 -14 20 -14 -1 -17 7 -16 57 1 48 -1 57 -15 55 -23 -5 -30
-138 -6 -138 19 0 19 -14 -1 -34 -20 -21 -11 -34 21 -31 17 2 23 -1 19 -8 -17
-29 -38 -46 -64 -52 -16 -3 -31 -13 -34 -22 -5 -11 -2 -14 10 -9 14 5 15 4 5
-8 -7 -8 -19 -12 -27 -9 -10 4 -15 0 -14 -8 5 -29 -1 -39 -21 -39 -12 0 -17
-4 -13 -11 8 -14 -56 -74 -75 -71 -7 2 -10 -1 -7 -6 6 -11 -37 -53 -79 -76
-16 -10 -21 -15 -11 -11 19 6 19 5 1 -15 -19 -21 -41 -28 -29 -8 5 7 3 8 -5 4
-7 -5 -10 -11 -7 -14 7 -7 -33 -52 -46 -52 -5 0 -6 5 -2 12 4 7 3 8 -4 4 -6
-4 -8 -14 -5 -23 5 -13 2 -15 -11 -10 -9 4 -15 3 -12 -2 8 -12 -45 -46 -64
-43 -13 2 -13 1 -1 -7 11 -7 7 -12 -16 -25 -17 -8 -34 -12 -38 -8 -3 4 -5 1
-3 -7 4 -16 -46 -54 -212 -159 -104 -67 -292 -175 -318 -183 -4 -1 -38 -17
-77 -34 -174 -80 -352 -149 -470 -181 -274 -74 -562 -134 -647 -134 -15 0 -30
-5 -34 -12 -10 -15 372 -4 556 18 367 42 799 173 1394 421 168 71 571 277 746
383 562 338 749 504 1426 1260 404 451 585 620 909 849 l160 114 1327 1325
1327 1326 53 -18 c29 -11 55 -21 58 -23 2 -2 -353 -362 -790 -800 -437 -439
-786 -790 -775 -781 11 8 81 68 155 133 402 350 599 513 900 744 111 86 370
267 492 345 71 44 137 98 192 153 l84 85 30 -16 c30 -15 32 -15 189 63 87 44
203 99 258 122 l100 43 320 0 c417 0 691 -23 1057 -90 465 -84 962 -250 1083
-360 28 -25 203 -197 390 -383 408 -405 532 -513 738 -645 130 -83 177 -106
327 -155 191 -64 521 -69 940 -14 154 20 724 25 1070 9 107 -5 250 -8 318 -7
111 2 122 0 122 -16 0 -10 -4 -14 -8 -8 -8 11 -58 13 -68 2 -4 -4 6 -8 22 -8
17 -1 22 -3 12 -6 -17 -4 -26 -34 -10 -32 4 1 17 1 30 0 l22 -1 0 -635 0 -635
-36 0 c-28 0 -35 -3 -32 -17 2 -10 12 -18 23 -19 40 -2 45 -4 45 -20 0 -14 2
-14 15 0 17 17 20 42 5 51 -6 4 -10 229 -10 641 0 459 3 633 11 628 8 -5 8 -1
0 14 -13 24 -15 61 -3 63 15 3 69 9 117 14 28 2 71 7 97 10 27 3 49 1 53 -5 4
-6 -6 -10 -24 -10 -17 0 -31 -4 -31 -10 0 -6 -22 -8 -55 -5 -62 6 -76 -10 -19
-21 45 -8 32 -22 -29 -30 -43 -6 -47 -5 -47 15 0 13 6 21 17 21 9 0 14 3 10 6
-3 4 -18 3 -34 0 -22 -6 -24 -9 -12 -17 11 -8 11 -12 2 -16 -15 -6 -17 -33 -3
-33 7 0 10 -222 10 -646 0 -427 -3 -643 -10 -639 -6 4 -10 -12 -10 -40 0 -28
4 -44 10 -40 6 4 10 -8 10 -29 0 -40 12 -52 37 -37 16 9 16 10 2 11 -23 0 -24
13 -28 423 l-3 357 29 1 c80 2 96 5 99 17 1 7 0 8 -3 2 -2 -5 -9 -10 -14 -10
-5 0 -4 9 3 20 10 16 10 24 0 40 -7 11 -8 20 -3 20 5 0 12 -6 14 -12 4 -10 6
-10 6 0 1 8 6 10 14 6 9 -6 9 -5 0 7 -13 16 -14 61 -1 53 4 -3 8 2 8 10 0 20
-31 27 -97 23 l-53 -4 0 233 0 232 48 4 c26 1 62 2 80 0 l32 -3 0 -230 c0
-171 3 -229 12 -229 9 0 9 -3 0 -12 -7 -7 -12 -20 -12 -31 0 -17 2 -17 22 -3
12 9 41 16 65 16 56 0 93 -31 99 -85 6 -50 -12 -85 -54 -106 -20 -10 -28 -19
-20 -22 7 -3 2 -5 -12 -4 -14 0 -42 11 -62 24 -45 28 -48 28 -48 5 0 -11 11
-24 25 -30 30 -14 33 -32 5 -32 -12 0 -20 -7 -21 -17 0 -10 0 -163 1 -340 l1
-323 -23 -2 c-13 0 -35 0 -50 1 -38 3 -35 -6 5 -18 30 -9 30 -9 6 -10 -15 -1
-29 -7 -32 -15 -9 -23 4 -26 32 -7 33 22 64 34 56 21 -7 -11 28 -13 63 -4 l22
6 0 339 c0 295 -2 339 -15 339 -22 0 -18 17 5 23 20 5 20 0 20 -339 0 -223 4
-344 10 -344 24 0 8 -31 -19 -36 -17 -4 -32 -12 -35 -20 -7 -19 -36 -18 -51 2
-10 14 -17 15 -41 5 l-29 -11 33 5 c31 4 45 -9 20 -18 -7 -2 0 -4 17 -4 16 0
31 -6 33 -12 2 -6 8 -8 14 -5 5 4 21 1 34 -7 20 -10 28 -10 48 0 14 8 30 10
38 5 7 -5 24 -8 38 -7 22 2 22 1 -5 -7 -20 -7 -31 -6 -36 2 -5 8 -13 6 -25 -7
-17 -17 -17 -17 2 -11 11 3 28 0 40 -9 26 -19 44 -19 19 1 -20 16 -19 16 4 9
15 -5 27 -2 32 6 6 10 8 6 7 -11 -3 -23 2 -26 57 -38 33 -8 74 -20 90 -28 47
-22 242 -62 327 -67 9 -1 15 -4 12 -6 -16 -17 450 -80 613 -84 62 -1 113 -5
113 -9 0 -14 479 -9 675 7 373 29 791 99 1030 172 182 55 375 131 480 189 171
93 292 167 375 228 310 227 547 461 820 811 30 39 59 73 65 77 5 4 7 8 3 8 -3
0 8 15 24 33 l31 32 -179 5 c-202 6 -236 16 -308 88 -62 61 -86 119 -86 207 0
90 24 149 85 210 80 81 72 79 500 85 l380 5 69 115 c38 63 144 243 236 400 92
157 193 327 224 378 l58 93 -41 54 c-102 135 -146 272 -145 455 0 160 26 256
104 386 21 34 40 73 44 88 3 14 12 26 19 27 17 1 81 78 72 87 -4 4 -22 -11
-41 -33 l-34 -40 0 28 c0 17 5 27 15 27 8 0 15 7 15 15 0 11 9 14 38 11 22 -2
46 2 57 10 18 14 18 14 -1 29 -24 18 -31 18 -38 0 -3 -8 -14 -15 -25 -15 -11
0 -23 -4 -26 -10 -19 -30 -33 4 -16 38 5 9 14 42 20 72 16 79 36 151 42 146 2
-2 5 15 6 37 2 23 7 43 13 45 5 2 10 11 10 21 0 9 4 21 8 27 5 5 17 32 27 59
29 78 102 230 145 302 22 36 40 67 40 70 0 5 80 123 90 133 3 3 21 28 40 55
65 93 56 90 162 75 99 -14 727 -23 673 -10 -26 7 -23 8 20 9 28 1 101 10 164
21 63 11 116 18 118 16 2 -2 24 2 49 10 24 7 44 9 44 5 0 -5 -19 -13 -42 -19
l-43 -11 50 4 c28 3 52 10 53 15 2 6 17 10 34 10 23 0 29 -4 26 -17 -2 -14
-17 -19 -63 -23 -42 -4 -52 -7 -35 -11 21 -5 19 -7 -11 -8 -20 0 -52 -3 -70
-6 -29 -4 -30 -3 -9 4 l25 9 -25 0 c-14 0 -36 -3 -50 -8 l-25 -7 28 -8 c15 -4
40 -5 55 -3 26 4 27 2 24 -34 -4 -37 -5 -38 -43 -38 -39 0 -39 0 -39 -40 l0
-40 -40 0 -40 0 0 80 c0 57 4 80 13 80 8 0 7 4 -3 10 -8 5 -26 9 -40 9 -23 -1
-22 -2 5 -8 35 -8 16 -19 -27 -16 -26 2 -28 -1 -28 -37 0 -38 0 -38 -40 -38
l-40 0 0 -40 c0 -36 3 -40 25 -40 23 0 25 -4 25 -40 l0 -40 -65 0 -65 0 0 -65
0 -65 -80 0 -80 0 0 -55 0 -55 -40 0 -40 0 0 -80 0 -80 -80 0 -80 0 0 -40 0
-40 -40 0 -40 0 0 -40 c0 -33 -4 -40 -19 -40 -10 0 -31 -6 -46 -14 -15 -8 -61
-18 -101 -21 -77 -8 -101 -24 -36 -26 74 -1 123 -18 61 -21 -29 -1 -26 -2 16
-9 37 -5 24 -7 -50 -4 -65 2 -93 0 -80 -6 21 -9 -62 -3 -97 7 -10 3 -18 1 -18
-5 0 -5 8 -11 18 -14 12 -3 9 -7 -15 -17 -52 -19 -38 -28 16 -11 27 9 45 18
41 21 -15 10 205 10 255 1 31 -6 51 -6 53 0 2 5 10 9 18 9 9 0 13 -4 10 -9 -9
-14 17 -20 38 -8 16 8 18 6 13 -7 -5 -12 0 -16 18 -16 13 0 26 -4 29 -9 3 -5
16 -7 29 -4 16 3 18 2 9 -5 -11 -7 -8 -11 10 -17 12 -4 29 -6 37 -5 7 1 10 -3
6 -9 -3 -6 0 -11 8 -11 8 0 47 -25 86 -55 39 -30 75 -55 79 -55 4 0 13 9 20
21 10 16 16 18 27 9 8 -7 15 -7 19 -1 3 5 0 12 -6 14 -8 3 -6 6 5 6 10 1 15 6
12 11 -3 6 -1 10 5 10 7 0 9 -7 6 -16 -5 -14 -1 -15 21 -10 16 4 45 9 66 13
28 4 35 8 25 15 -9 7 -8 8 5 4 10 -3 64 1 120 10 76 12 163 16 337 15 129 -1
258 -4 285 -6 317 -27 608 -29 800 -5 140 17 274 43 269 52 -3 4 1 5 9 2 8 -3
41 2 73 11 33 9 69 18 81 21 12 2 35 9 50 16 16 6 33 12 38 12 13 2 117 37
130 45 6 3 15 6 20 7 53 9 480 210 605 284 30 18 89 52 130 75 41 23 173 101
293 174 121 73 220 131 220 129 53 -111 79 -151 132 -203 215 -213 552 -208
768 11 56 57 120 178 137 260 21 102 -10 337 -43 317 -7 -4 -8 0 -3 13 4 10 4
15 0 12 -4 -4 -16 4 -27 18 -10 14 -25 23 -33 20 -7 -3 -16 -1 -19 4 -4 6 1
10 9 10 9 0 16 5 16 11 0 5 5 7 12 3 7 -4 8 -3 4 5 -6 9 -11 9 -22 0 -8 -7
-14 -7 -14 -1 0 17 21 28 140 75 324 126 662 215 1019 267 80 11 150 25 157
31 7 6 15 6 18 1 3 -5 16 -8 28 -7 19 2 287 16 363 19 20 1 20 9 23 625 2 583
1 626 -15 645 -17 19 -17 20 0 7 16 -13 17 126 17 2893 0 1598 -2 2906 -4
2906 -2 0 -44 -36 -94 -81z m-24272 -5069 c0 -5 -6 -10 -12 -11 -10 0 -10 -2
0 -6 9 -4 12 -273 12 -1299 0 -1146 -2 -1294 -15 -1294 -13 0 -15 146 -13
1290 l3 1290 -27 0 c-15 0 -30 5 -34 11 -4 7 0 9 13 5 10 -3 28 1 39 9 23 17
34 19 34 5z m5287 -1258 c82 -42 123 -115 123 -219 0 -141 -93 -233 -235 -233
-141 0 -241 99 -240 240 1 102 49 175 145 220 56 26 146 23 207 -8z m-1967
-722 c-8 -6 -27 -10 -41 -10 -15 0 -37 -9 -50 -20 l-24 -19 23 -1 c17 0 22 -6
22 -25 0 -23 -4 -25 -46 -25 -43 0 -46 -2 -40 -22 3 -13 6 -128 6 -255 l0
-233 40 0 40 0 0 -40 0 -40 -40 0 -40 0 0 -120 0 -120 -40 0 -40 0 0 -46 0
-46 -41 7 c-29 5 -40 4 -35 -4 4 -6 23 -11 42 -11 34 0 50 -20 17 -20 -17 -1
-17 -1 0 -14 9 -7 17 -17 17 -21 0 -4 -8 -4 -17 0 -29 11 -163 45 -238 60 -38
8 -142 31 -230 50 -88 20 -193 43 -232 52 -43 9 -73 21 -73 28 0 22 89 193
137 263 97 142 294 349 328 346 8 -1 12 4 9 10 -2 6 11 21 28 33 24 17 34 20
41 10 6 -8 7 -6 3 6 -4 12 1 20 17 27 12 5 44 25 72 45 27 20 58 34 67 32 11
-3 15 0 11 9 -3 8 1 14 8 14 8 0 37 12 64 25 48 25 77 36 190 75 50 17 72 17
45 0z m19012 -111 c74 -14 173 -67 238 -127 l60 -55 -26 -24 c-25 -23 -44 -30
-44 -15 0 4 -5 14 -10 22 -8 13 -11 12 -23 -3 -11 -16 -22 -18 -84 -12 -63 7
-72 10 -77 30 -5 20 -14 23 -81 30 -41 4 -75 10 -75 14 0 12 -172 29 -199 19
-16 -6 -28 -4 -39 4 -8 7 -27 19 -41 26 -24 11 -24 12 -3 8 14 -3 22 0 19 7
-5 17 89 62 158 75 107 21 125 21 227 1z m-15781 -173 c124 -27 253 -110 324
-210 19 -27 49 -86 66 -130 29 -73 32 -92 32 -186 0 -94 -3 -113 -32 -187 -59
-152 -157 -254 -303 -315 -94 -40 -249 -51 -344 -23 -130 37 -265 139 -327
246 -95 163 -96 385 -3 550 48 84 165 189 253 226 99 41 225 52 334 29z
m-3849 -2021 c2 -3 -675 -685 -1506 -1516 l-1511 -1510 -3 77 -3 78 1438 1438
1438 1438 71 0 c39 0 73 -2 76 -5z m-1764 -1242 c-675 -675 -1230 -1224 -1233
-1221 -4 3 -1 42 6 86 l12 81 594 598 c327 329 658 661 736 739 130 129 912
903 923 913 5 5 136 28 169 30 13 1 -428 -447 -1207 -1226z m15082 1185 c53
-37 72 -70 72 -125 0 -61 -23 -107 -65 -134 -47 -29 -146 -23 -183 11 -59 56
-71 133 -30 198 44 71 141 94 206 50z m-12920 1 c25 -5 51 -12 59 -15 9 -3
-616 -635 -1690 -1709 -937 -938 -1707 -1705 -1710 -1705 -4 0 -12 28 -19 62
l-12 61 161 161 c88 89 832 834 1653 1657 821 823 1498 1496 1503 1497 6 1 30
-3 55 -9z m-1808 -301 c-83 -84 -392 -395 -686 -691 -295 -297 -536 -543 -536
-548 0 -5 -4 -9 -9 -9 -5 0 -47 -38 -94 -85 -59 -59 -88 -82 -93 -74 -4 7 -2
15 4 17 7 2 12 9 12 15 1 7 9 30 19 51 15 31 17 45 8 63 -5 12 -14 20 -18 17
-5 -3 -9 5 -9 18 1 22 1 22 12 3 11 -19 11 -19 20 0 6 16 7 14 3 -7 -3 -15 -1
-30 5 -33 6 -4 13 7 16 24 4 17 9 31 13 31 3 0 17 24 31 53 13 28 39 67 58 86
29 29 32 35 18 43 -9 5 -16 14 -16 19 0 6 7 3 16 -5 8 -9 21 -13 27 -9 29 18
45 38 40 47 -3 6 -2 8 2 3 11 -10 66 43 58 56 -3 6 -2 7 4 4 5 -3 17 3 27 14
17 20 16 21 -1 35 -17 14 -16 14 4 4 21 -10 30 -3 99 66 63 64 73 79 60 86 -9
5 -16 14 -16 19 0 6 7 3 16 -5 8 -9 19 -16 22 -16 11 0 47 44 44 53 -1 5 1 6
6 3 12 -7 64 48 55 59 -5 4 -3 5 3 2 7 -4 19 4 27 16 14 21 13 25 -1 35 -14
10 -14 11 4 2 17 -7 27 -5 45 11 13 12 23 26 21 33 -2 6 0 8 4 3 10 -10 65 43
57 56 -3 6 -2 7 4 4 13 -8 86 67 76 77 -5 4 -3 6 3 4 5 -1 93 79 195 180 l184
183 140 69 c77 38 146 70 154 70 8 0 -54 -69 -137 -152z m10378 -1961 c-1 -5
11 -21 27 -35 23 -23 28 -36 28 -75 0 -26 -4 -47 -8 -47 -5 0 -6 -7 -3 -16 3
-8 2 -12 -4 -9 -6 4 -17 -1 -26 -9 -8 -9 -13 -16 -9 -16 3 0 3 -5 -1 -11 -4
-8 -9 -8 -13 -1 -4 6 -32 12 -63 14 -31 2 -54 7 -51 11 3 5 -3 17 -12 27 -10
11 -17 31 -17 45 0 14 -4 28 -9 31 -5 3 -9 10 -9 16 0 6 3 8 6 5 9 -8 47 40
40 51 -3 5 3 8 12 8 72 0 103 5 96 15 -4 7 -2 10 5 8 7 -3 12 -8 11 -12z m523
-17 c15 -7 36 -29 48 -48 20 -34 20 -37 3 -74 -29 -64 -97 -89 -157 -56 -12 7
-25 12 -28 11 -3 -1 -6 34 -6 78 0 44 2 77 5 74 3 -3 11 0 19 6 12 11 71 28
83 24 3 0 17 -7 33 -15z"/>
<path d="M22221 16364 c-6 -15 -9 -36 -5 -48 4 -11 3 -17 -2 -13 -16 15 -34
-80 -34 -184 0 -345 212 -628 545 -724 74 -21 111 -26 215 -26 108 -1 136 2
205 25 159 51 324 176 409 309 76 121 129 306 108 383 l-10 39 -2 -50 c-2 -41
-3 -45 -10 -25 -9 28 -10 27 -16 -15 -8 -45 -14 -43 -14 3 0 38 -2 42 -24 42
-13 0 -27 6 -29 13 -4 10 -6 10 -6 0 -1 -20 -111 -18 -111 2 0 11 -11 15 -40
15 -22 0 -40 5 -40 10 0 6 -33 10 -80 10 -64 0 -80 3 -80 15 0 12 -16 15 -80
15 -64 0 -80 3 -80 15 0 11 -11 15 -40 15 -22 0 -40 5 -40 10 0 6 -33 10 -80
10 -64 0 -80 3 -80 15 0 12 -16 15 -80 15 -64 0 -80 3 -80 15 0 11 -11 15 -40
15 -22 0 -40 5 -40 10 0 6 -18 10 -40 10 -30 0 -40 4 -40 16 0 13 -10 15 -47
14 -66 -3 -73 -2 -73 15 0 8 -7 15 -15 15 -8 0 -15 -6 -15 -13 0 -7 -11 -14
-25 -15 -14 -1 -25 2 -25 6 0 4 -11 19 -24 34 l-23 28 -12 -26z"/>
<path d="M12160 13684 c-108 -29 -186 -96 -237 -203 -31 -65 -40 -159 -23
-230 25 -106 121 -212 230 -253 42 -17 119 -18 1110 -18 1060 0 1065 1 1040
20 -101 79 -389 258 -563 348 -200 105 -530 246 -741 318 l-100 34 -330 -1
c-258 0 -343 -4 -386 -15z"/>
<path d="M26274 8323 c-10 -10 -26 -22 -37 -28 -60 -30 -87 -176 -48 -260 83
-180 344 -180 427 -1 30 64 31 125 3 187 -18 38 -26 47 -48 47 -14 1 -48 6
-76 12 -27 6 -72 15 -100 21 -27 5 -59 11 -70 13 -11 3 -24 5 -28 5 -5 1 -5 6
-2 11 10 16 -2 12 -21 -7z"/>
<path d="M21243 6363 c-13 -2 -23 -9 -23 -14 0 -5 -7 -9 -15 -9 -22 0 -92 -74
-109 -115 -36 -85 -9 -199 62 -262 58 -52 111 -63 303 -63 l167 0 54 73 c30
39 61 83 68 96 7 14 17 30 22 35 13 15 136 205 154 239 l15 27 -338 -1 c-186
-1 -348 -4 -360 -6z"/>
<path d="M11985 5214 c-104 -27 -218 -74 -279 -118 -87 -61 -212 -198 -199
-219 3 -7 3 -9 -2 -5 -8 7 -45 -44 -49 -67 -1 -5 -7 -20 -14 -32 -7 -12 -13
-30 -15 -40 -2 -10 -7 -27 -11 -38 -14 -37 -15 -43 -6 -72 6 -21 9 -23 10 -8
1 28 30 -39 30 -71 0 -40 18 -36 25 6 8 48 22 51 38 10 11 -30 12 -30 89 -30
45 0 78 -4 78 -10 0 -6 33 -10 80 -10 47 0 80 -4 80 -10 0 -5 18 -10 40 -10
33 0 40 -3 40 -20 0 -18 7 -20 79 -20 45 0 81 -4 83 -10 2 -6 55 -13 121 -17
114 -6 117 -7 117 -30 0 -22 3 -23 80 -23 47 0 80 -4 80 -10 0 -6 33 -10 80
-10 47 0 80 -4 80 -10 0 -5 18 -10 40 -10 33 0 40 -3 40 -20 0 -16 7 -20 35
-20 27 0 35 4 35 18 0 14 2 15 10 2 9 -13 10 -13 11 0 0 10 3 8 8 -5 6 -13 4
-23 -5 -28 -8 -4 -14 -17 -14 -29 0 -21 0 -21 20 2 21 24 21 25 26 75 1 17 8
57 15 90 21 103 -20 318 -79 415 -52 85 -73 112 -138 176 -85 84 -163 134
-276 176 -76 28 -95 31 -223 34 -77 2 -149 1 -160 -2z"/>
<path d="M14071 5178 c-66 -19 -129 -75 -164 -147 -19 -37 -23 -101 -7 -101 6
0 11 -10 11 -22 1 -18 2 -19 6 -5 4 15 11 17 35 12 57 -13 143 -25 213 -31 38
-3 72 -9 75 -14 3 -4 40 -11 82 -15 68 -6 77 -10 81 -29 4 -20 4 -20 6 2 1 21
3 22 16 8 8 -8 15 -20 15 -27 0 -7 2 -10 6 -7 3 3 7 33 10 67 8 87 -15 156
-71 219 -64 71 -131 102 -214 101 -37 0 -81 -5 -100 -11z"/>
</g>
</svg>
